<mxfile host="app.diagrams.net" agent="Mozilla/5.0 (Windows NT 10.0; Win64; x64) AppleWebKit/537.36 (KHTML, like Gecko) Chrome/131.0.0.0 Safari/537.36" version="24.8.8">
  <diagram name="Strona-1" id="VheaHTbyWCf6I-WKC_Cd">
    <mxGraphModel dx="989" dy="532" grid="1" gridSize="10" guides="1" tooltips="1" connect="1" arrows="1" fold="1" page="1" pageScale="1" pageWidth="827" pageHeight="1169" math="0" shadow="0">
      <root>
        <mxCell id="0" />
        <mxCell id="1" parent="0" />
        <mxCell id="moNi7ZJ1nhgyJjIW2vZc-1" value="" style="points=[];aspect=fixed;html=1;align=center;shadow=0;dashed=0;fillColor=#FF6A00;strokeColor=none;shape=mxgraph.alibaba_cloud.user;" vertex="1" parent="1">
          <mxGeometry x="140" y="355" width="60" height="60" as="geometry" />
        </mxCell>
        <mxCell id="moNi7ZJ1nhgyJjIW2vZc-2" value="" style="rounded=1;whiteSpace=wrap;html=1;fillColor=none;" vertex="1" parent="1">
          <mxGeometry x="260" y="270" width="490" height="230" as="geometry" />
        </mxCell>
        <mxCell id="moNi7ZJ1nhgyJjIW2vZc-3" value="" style="rounded=1;whiteSpace=wrap;html=1;fillColor=none;" vertex="1" parent="1">
          <mxGeometry x="280" y="400" width="200" height="70" as="geometry" />
        </mxCell>
        <mxCell id="moNi7ZJ1nhgyJjIW2vZc-4" value="" style="sketch=0;outlineConnect=0;fontColor=#232F3E;gradientColor=none;fillColor=#232F3D;strokeColor=none;dashed=0;verticalLabelPosition=bottom;verticalAlign=top;align=center;html=1;fontSize=12;fontStyle=0;aspect=fixed;pointerEvents=1;shape=mxgraph.aws4.authenticated_user;" vertex="1" parent="1">
          <mxGeometry x="300" y="411" width="38" height="38" as="geometry" />
        </mxCell>
        <mxCell id="moNi7ZJ1nhgyJjIW2vZc-5" value="&lt;span style=&quot;color: rgb(36, 36, 36); letter-spacing: -0.06px; text-align: left; background-color: rgb(242, 242, 242);&quot;&gt;&lt;font style=&quot;font-size: 13px;&quot; face=&quot;Helvetica&quot;&gt;AuthenticationManager&lt;/font&gt;&lt;/span&gt;" style="text;html=1;align=center;verticalAlign=middle;whiteSpace=wrap;rounded=0;" vertex="1" parent="1">
          <mxGeometry x="380" y="420" width="50" height="20" as="geometry" />
        </mxCell>
        <mxCell id="moNi7ZJ1nhgyJjIW2vZc-7" value="Authenticate User" style="rhombus;whiteSpace=wrap;html=1;" vertex="1" parent="1">
          <mxGeometry x="292" y="290" width="176" height="70" as="geometry" />
        </mxCell>
        <mxCell id="moNi7ZJ1nhgyJjIW2vZc-8" value="User Repository" style="sketch=0;html=1;aspect=fixed;strokeColor=none;shadow=0;fillColor=#3B8DF1;verticalAlign=top;labelPosition=center;verticalLabelPosition=bottom;shape=mxgraph.gcp2.repository" vertex="1" parent="1">
          <mxGeometry x="580" y="290" width="30" height="50" as="geometry" />
        </mxCell>
        <mxCell id="moNi7ZJ1nhgyJjIW2vZc-9" value="" style="shape=datastore;whiteSpace=wrap;html=1;" vertex="1" parent="1">
          <mxGeometry x="565" y="410" width="60" height="60" as="geometry" />
        </mxCell>
        <mxCell id="moNi7ZJ1nhgyJjIW2vZc-10" value="" style="image;aspect=fixed;html=1;points=[];align=center;fontSize=12;image=img/lib/azure2/databases/Azure_Database_PostgreSQL_Server.svg;" vertex="1" parent="1">
          <mxGeometry x="610" y="443.67" width="28" height="37.33" as="geometry" />
        </mxCell>
        <mxCell id="moNi7ZJ1nhgyJjIW2vZc-11" value="" style="endArrow=classic;html=1;rounded=0;exitX=1.028;exitY=0.526;exitDx=0;exitDy=0;exitPerimeter=0;entryX=0;entryY=0.506;entryDx=0;entryDy=0;entryPerimeter=0;" edge="1" parent="1" source="moNi7ZJ1nhgyJjIW2vZc-1" target="moNi7ZJ1nhgyJjIW2vZc-2">
          <mxGeometry width="50" height="50" relative="1" as="geometry">
            <mxPoint x="310" y="440" as="sourcePoint" />
            <mxPoint x="360" y="390" as="targetPoint" />
          </mxGeometry>
        </mxCell>
        <mxCell id="moNi7ZJ1nhgyJjIW2vZc-12" value="" style="endArrow=classic;html=1;rounded=0;exitX=0.5;exitY=0;exitDx=0;exitDy=0;" edge="1" parent="1" source="moNi7ZJ1nhgyJjIW2vZc-3" target="moNi7ZJ1nhgyJjIW2vZc-7">
          <mxGeometry width="50" height="50" relative="1" as="geometry">
            <mxPoint x="310" y="440" as="sourcePoint" />
            <mxPoint x="360" y="390" as="targetPoint" />
          </mxGeometry>
        </mxCell>
        <mxCell id="moNi7ZJ1nhgyJjIW2vZc-13" value="" style="endArrow=classic;html=1;rounded=0;exitX=1;exitY=0.5;exitDx=0;exitDy=0;" edge="1" parent="1" source="moNi7ZJ1nhgyJjIW2vZc-7">
          <mxGeometry width="50" height="50" relative="1" as="geometry">
            <mxPoint x="310" y="440" as="sourcePoint" />
            <mxPoint x="580" y="325" as="targetPoint" />
          </mxGeometry>
        </mxCell>
        <mxCell id="moNi7ZJ1nhgyJjIW2vZc-14" value="Jwt Service" style="verticalLabelPosition=bottom;html=1;verticalAlign=top;align=center;strokeColor=none;fillColor=#00BEF2;shape=mxgraph.azure.startup_task;pointerEvents=1;" vertex="1" parent="1">
          <mxGeometry x="670" y="290" width="47.5" height="50" as="geometry" />
        </mxCell>
        <mxCell id="moNi7ZJ1nhgyJjIW2vZc-15" value="" style="endArrow=classic;startArrow=classic;html=1;rounded=0;exitX=0.5;exitY=0;exitDx=0;exitDy=0;" edge="1" parent="1" source="moNi7ZJ1nhgyJjIW2vZc-9">
          <mxGeometry width="50" height="50" relative="1" as="geometry">
            <mxPoint x="560" y="430" as="sourcePoint" />
            <mxPoint x="595" y="360" as="targetPoint" />
          </mxGeometry>
        </mxCell>
        <mxCell id="moNi7ZJ1nhgyJjIW2vZc-17" value="" style="endArrow=classic;html=1;rounded=0;exitX=1.056;exitY=0.526;exitDx=0;exitDy=0;exitPerimeter=0;entryX=0;entryY=0.5;entryDx=0;entryDy=0;entryPerimeter=0;" edge="1" parent="1" source="moNi7ZJ1nhgyJjIW2vZc-8" target="moNi7ZJ1nhgyJjIW2vZc-14">
          <mxGeometry width="50" height="50" relative="1" as="geometry">
            <mxPoint x="530" y="630" as="sourcePoint" />
            <mxPoint x="580" y="580" as="targetPoint" />
          </mxGeometry>
        </mxCell>
        <mxCell id="moNi7ZJ1nhgyJjIW2vZc-18" value="" style="endArrow=classic;html=1;rounded=0;exitX=0.5;exitY=1;exitDx=0;exitDy=0;entryX=0.505;entryY=1.033;entryDx=0;entryDy=0;entryPerimeter=0;" edge="1" parent="1" source="moNi7ZJ1nhgyJjIW2vZc-2" target="moNi7ZJ1nhgyJjIW2vZc-1">
          <mxGeometry width="50" height="50" relative="1" as="geometry">
            <mxPoint x="490" y="590" as="sourcePoint" />
            <mxPoint x="540" y="540" as="targetPoint" />
            <Array as="points">
              <mxPoint x="505" y="520" />
              <mxPoint x="170" y="520" />
            </Array>
          </mxGeometry>
        </mxCell>
        <mxCell id="moNi7ZJ1nhgyJjIW2vZc-19" value="" style="endArrow=classic;html=1;rounded=0;exitX=0;exitY=0.5;exitDx=0;exitDy=0;entryX=0.425;entryY=0.044;entryDx=0;entryDy=0;entryPerimeter=0;" edge="1" parent="1" source="moNi7ZJ1nhgyJjIW2vZc-7" target="moNi7ZJ1nhgyJjIW2vZc-1">
          <mxGeometry width="50" height="50" relative="1" as="geometry">
            <mxPoint x="230" y="290" as="sourcePoint" />
            <mxPoint x="280" y="240" as="targetPoint" />
            <Array as="points">
              <mxPoint x="166" y="325" />
            </Array>
          </mxGeometry>
        </mxCell>
        <mxCell id="moNi7ZJ1nhgyJjIW2vZc-20" value="" style="endArrow=classic;html=1;rounded=0;exitX=0.505;exitY=0.029;exitDx=0;exitDy=0;exitPerimeter=0;" edge="1" parent="1" source="moNi7ZJ1nhgyJjIW2vZc-8">
          <mxGeometry width="50" height="50" relative="1" as="geometry">
            <mxPoint x="520" y="230" as="sourcePoint" />
            <mxPoint x="170" y="320" as="targetPoint" />
            <Array as="points">
              <mxPoint x="600" y="260" />
              <mxPoint x="170" y="260" />
            </Array>
          </mxGeometry>
        </mxCell>
        <mxCell id="moNi7ZJ1nhgyJjIW2vZc-21" value="HTTP 403" style="text;html=1;align=center;verticalAlign=middle;whiteSpace=wrap;rounded=0;" vertex="1" parent="1">
          <mxGeometry x="100" y="325" width="60" height="30" as="geometry" />
        </mxCell>
        <mxCell id="moNi7ZJ1nhgyJjIW2vZc-22" value="HTTP 200: JWT token" style="text;html=1;align=center;verticalAlign=middle;whiteSpace=wrap;rounded=0;" vertex="1" parent="1">
          <mxGeometry x="170" y="520" width="130" height="30" as="geometry" />
        </mxCell>
        <mxCell id="moNi7ZJ1nhgyJjIW2vZc-23" value="a)" style="text;html=1;align=center;verticalAlign=middle;whiteSpace=wrap;rounded=0;" vertex="1" parent="1">
          <mxGeometry x="200" y="360" width="60" height="30" as="geometry" />
        </mxCell>
        <mxCell id="moNi7ZJ1nhgyJjIW2vZc-24" value="b)" style="text;html=1;align=center;verticalAlign=middle;whiteSpace=wrap;rounded=0;" vertex="1" parent="1">
          <mxGeometry x="200" y="295" width="60" height="30" as="geometry" />
        </mxCell>
        <mxCell id="moNi7ZJ1nhgyJjIW2vZc-25" value="c)" style="text;html=1;align=center;verticalAlign=middle;whiteSpace=wrap;rounded=0;" vertex="1" parent="1">
          <mxGeometry x="205" y="230" width="60" height="30" as="geometry" />
        </mxCell>
        <mxCell id="moNi7ZJ1nhgyJjIW2vZc-26" value="e)" style="text;html=1;align=center;verticalAlign=middle;whiteSpace=wrap;rounded=0;" vertex="1" parent="1">
          <mxGeometry x="130" y="520" width="60" height="30" as="geometry" />
        </mxCell>
        <mxCell id="moNi7ZJ1nhgyJjIW2vZc-27" value="d)" style="text;html=1;align=center;verticalAlign=middle;whiteSpace=wrap;rounded=0;" vertex="1" parent="1">
          <mxGeometry x="610" y="295" width="60" height="20" as="geometry" />
        </mxCell>
      </root>
    </mxGraphModel>
  </diagram>
</mxfile>
